#!OML:ASF I:\Actors\actors\Patient Classification 1\Patient 1\Session 1\Subject1.ASF
:FULLY-SPECIFIED
:DEGREES
548
root -1.02072 17.6031 7.35347 7.72106 0.963298 -6.43272
lowerback 7.42497 4.32629 12.0024
upperback -10.9627 7.97759 1.3283
thorax -15.2002 2.47274 -6.66356
lowerneck -11.5761 -10.962 -6.5414
upperneck 16.1574 -14.0246 1.11479
head 7.40181 -7.03102 -0.0256953
rclavicle -2.5842e-015 2.10712e-014
rhumerus 49.8222 26.1215 -25.5919
rradius 45.1122
rwrist 48.1943
rhand -30.6471 -47.4979
rfingers 7.12502
rthumb -3.94239 -77.4412
lclavicle -2.5842e-015 2.10712e-014
lhumerus -40.7527 11.323 53.3447
lradius 105.95
lwrist 13.9946
lhand -35.6604 -36.052
lfingers 7.12502
lthumb -8.78211 -6.25468
rfemur -0.309694 24.2591 26.8118
rtibia -0.348116
rfoot -12.3507 -23.6279
rtoes 8.5535
lfemur 2.3948 -36.1231 -11.2687
ltibia -2.14014
lfoot -11.5128 41.5917
ltoes -4.35073
549
root -1.03054 17.6061 7.36667 7.69698 1.78012 -6.35444
lowerback 7.32349 4.27244 11.4867
upperback -11.0595 7.82088 1.2854
thorax -15.3282 2.44463 -6.40583
lowerneck -11.5576 -11.242 -6.73229
upperneck 16.0675 -14.4338 1.43753
head 7.42395 -7.20857 0.0576582
rclavicle 2.19657e-014 -2.54444e-014
rhumerus 46.0503 26.0744 -25.5437
rradius 44.8916
rwrist 49.0421
rhand -31.6144 -47.4476
rfingers 7.12502
rthumb -4.87644 -77.3715
lclavicle 2.19657e-014 -2.54444e-014
lhumerus -41.488 11.2916 52.8149
lradius 105.989
lwrist 14.2674
lhand -35.6238 -36.0205
lfingers 7.12502
lthumb -8.74679 -6.2217
rfemur -0.0444114 24.6207 26.9596
rtibia -0.495128
rfoot -12.6726 -24.8347
rtoes 8.85499
lfemur 1.95767 -35.7917 -10.9639
ltibia -2.0657
lfoot -10.6296 40.5529
ltoes -5.80736
550
root -1.03669 17.6065 7.38327 7.62115 2.6264 -6.33477
lowerback 7.22559 4.23352 11.0132
upperback -11.113 7.6929 1.28787
thorax -15.4 2.43539 -6.12147
lowerneck -11.4166 -11.5352 -6.93142
upperneck 15.7335 -14.8773 1.86303
head 7.35728 -7.39718 0.184803
rclavicle 5.42682e-014 3.57812e-015
rhumerus 42.1384 25.2437 -25.9884
rradius 44.3283
rwrist 49.3368
rhand -32.0776 -47.7475
rfingers 7.12502
rthumb -5.32365 -77.6606
lclavicle 5.42682e-014 3.57812e-015
lhumerus -42.1954 11.3607 52.3262
lradius 105.966
lwrist 14.3968
lhand -35.5981 -36.0299
lfingers 7.12502
lthumb -8.72195 -6.2301
rfemur 0.284066 24.713 27.17
rtibia -0.616405
rfoot -13.1086 -25.7511
rtoes 9.51753
lfemur 1.61426 -35.421 -10.6683
ltibia -2.00345
lfoot -9.79471 39.4113
ltoes -7.25554
551
root -1.03792 17.6047 7.3999 7.50589 3.58998 -6.43939
lowerback 7.16022 4.13646 10.731
upperback -11.1389 7.52447 1.34978
thorax -15.4564 2.39164 -5.86858
lowerneck -11.1899 -11.7815 -7.16947
upperneck 15.3177 -15.2474 2.27361
head 7.25088 -7.55712 0.328549
rclavicle 4.8901e-014 -8.74653e-015
rhumerus 38.2382 23.3333 -27.2202
rradius 43.4585
rwrist 49.6676
rhand -32.1472 -47.6664
rfingers 7.12502
rthumb -5.39084 -77.5778
lclavicle 4.8901e-014 -8.74653e-015
lhumerus -42.9947 11.4634 51.7631
lradius 105.932
lwrist 14.3396
lhand -35.7521 -36.108
lfingers 7.12502
lthumb -8.87055 -6.31444
rfemur 0.63001 24.6487 27.513
rtibia -0.680228
rfoot -13.6866 -26.5248
rtoes 10.6827
lfemur 1.25647 -35.1459 -10.2654
ltibia -1.8658
lfoot -9.09489 38.2276
ltoes -8.61339
552
root -1.037 17.6024 7.4151 7.34833 4.70948 -6.68065
lowerback 7.20616 3.97197 10.6535
upperback -11.1802 7.32058 1.46407
thorax -15.6001 2.30399 -5.67371
lowerneck -11.0411 -12.0247 -7.30244
upperneck 15.0085 -15.5868 2.44736
head 7.16543 -7.71587 0.380011
rclavicle 1.09332e-014 1.51076e-014
rhumerus 34.8259 20.7781 -28.1664
rradius 42.2395
rwrist 49.6138
rhand -32.1938 -47.6185
rfingers 7.12502
rthumb -5.43582 -77.5287
lclavicle 1.09332e-014 1.51076e-014
lhumerus -43.8675 11.3836 51.125
lradius 105.938
lwrist 14.197
lhand -35.9301 -36.1501
lfingers 7.12502
lthumb -9.04236 -6.36395
rfemur 1.00111 24.6125 28.0351
rtibia -0.772308
rfoot -14.1701 -27.4666
rtoes 11.3589
lfemur 0.76524 -34.6934 -9.61517
ltibia -1.64844
lfoot -8.54298 36.7153
ltoes -9.72101
553
root -1.03477 17.6001 7.4313 7.17433 5.90485 -6.92802
lowerback 7.26245 3.80395 10.616
upperback -11.2047 7.11976 1.59282
thorax -15.7263 2.21661 -5.48352
lowerneck -11.0138 -12.3076 -7.57687
upperneck 14.8352 -15.9634 2.68254
head 7.16518 -7.89123 0.451798
rclavicle 5.96354e-016 1.70955e-014
rhumerus 31.9102 17.1478 -29.333
rradius 40.5512
rwrist 50.5865
rhand -32.7782 -47.9715
rfingers 7.12502
rthumb -6.00007 -77.8666
lclavicle 5.96354e-016 1.70955e-014
lhumerus -44.6343 11.2186 50.5563
lradius 105.897
lwrist 13.9485
lhand -35.9244 -36.1495
lfingers 7.12502
lthumb -9.03685 -6.36311
rfemur 1.38651 24.4881 28.5505
rtibia -0.917811
rfoot -14.569 -28.4131
rtoes 11.7183
lfemur 0.238609 -34.2296 -8.94826
ltibia -1.42314
lfoot -8.20623 35.0963
ltoes -10.4346
554
root -1.03169 17.5999 7.44691 7.00905 7.16221 -7.21424
lowerback 7.30153 3.60819 10.7119
upperback -11.2153 6.89644 1.71653
thorax -15.8153 2.106 -5.36366
lowerneck -10.9214 -12.5837 -7.86123
upperneck 14.4962 -16.3375 2.98705
head 7.1084 -8.06246 0.555488
rclavicle -6.65929e-015 3.29983e-014
rhumerus 29.7087 12.2335 -31.0701
rradius 38.8083
rwrist 51.4759
rhand -33.0686 -47.358
rfingers 7.12502
rthumb -6.28048 -77.2449
lclavicle -6.65929e-015 3.29983e-014
lhumerus -45.2682 11.1099 50.0102
lradius 105.835
lwrist 13.7635
lhand -35.7307 -36.1192
lfingers 7.12502
lthumb -8.84993 -6.32475
rfemur 1.73795 24.4773 29.1048
rtibia -1.01785
rfoot -15.1828 -29.4542
rtoes 12.7737
lfemur -0.313826 -33.9264 -8.24179
ltibia -1.23295
lfoot -7.83096 33.5885
ltoes -11.3739
555
root -1.02668 17.6018 7.4616 6.8619 8.45052 -7.50523
lowerback 7.32993 3.37255 10.9582
upperback -11.2475 6.63988 1.82045
thorax -15.9171 1.95893 -5.34065
lowerneck -10.6005 -12.7719 -8.06742
upperneck 13.9599 -16.6069 3.26167
head 6.93606 -8.18913 0.674078
rclavicle 2.44505e-014 2.3059e-014
rhumerus 28.8173 7.10487 -32.4528
rradius 36.4006
rwrist 52.4613
rhand -32.9064 -47.4585
rfingers 7.12502
rthumb -6.1238 -77.3499
lclavicle 2.44505e-014 2.3059e-014
lhumerus -45.8189 10.9614 49.497
lradius 105.782
lwrist 13.7641
lhand -35.6253 -36.0516
lfingers 7.12502
lthumb -8.74827 -6.25287
rfemur 2.09544 24.7641 29.6935
rtibia -1.16769
rfoot -15.9021 -30.7895
rtoes 14.0218
lfemur -0.927825 -33.6034 -7.51711
ltibia -1.03218
lfoot -7.26859 32.0479
ltoes -12.7242
556
root -1.01908 17.6041 7.47751 6.7805 9.63853 -7.61702
lowerback 7.28607 3.15185 11.1281
upperback -11.3028 6.37612 1.87143
thorax -16.0018 1.81431 -5.32835
lowerneck -10.1741 -12.9095 -8.29566
upperneck 13.5325 -16.8126 3.50255
head 6.77878 -8.29139 0.795998
rclavicle -2.84262e-014 2.8625e-014
rhumerus 29.0924 2.04255 -33.5203
rradius 33.8881
rwrist 53.0368
rhand -32.5621 -48.0771
rfingers 7.12502
rthumb -5.79147 -77.9779
lclavicle -2.84262e-014 2.8625e-014
lhumerus -46.2543 10.8194 49.1153
lradius 105.719
lwrist 13.7548
lhand -35.7157 -35.9596
lfingers 7.12502
lthumb -8.83551 -6.1646
rfemur 2.47652 25.2128 30.0811
rtibia -1.41455
rfoot -16.6872 -32.1913
rtoes 15.3565
lfemur -1.52072 -33.3369 -7.05217
ltibia -0.834445
lfoot -6.7676 30.6375
ltoes -13.8661
